<?xml version="1.0" encoding="UTF-8"?>
<!DOCTYPE svg PUBLIC "-//W3C//DTD SVG 1.1//EN" "http://www.w3.org/Graphics/SVG/1.1/DTD/svg11.dtd">
<!-- Creator: CorelDRAW 2019 (64-Bit) -->
<svg xmlns="http://www.w3.org/2000/svg" xml:space="preserve" width="100px" height="100px" version="1.1" style="shape-rendering:geometricPrecision; text-rendering:geometricPrecision; image-rendering:optimizeQuality; fill-rule:evenodd; clip-rule:evenodd"
viewBox="0 0 100 100"
 xmlns:xlink="http://www.w3.org/1999/xlink">
 <defs>
  <style type="text/css">
   <![CDATA[
    .fil86 {fill:#E74A1A}
    .fil85 {fill:#E84C1A}
    .fil84 {fill:#E84D1A}
    .fil83 {fill:#E84E1B}
    .fil82 {fill:#E9501B}
    .fil81 {fill:#E9511B}
    .fil80 {fill:#EA531B}
    .fil79 {fill:#EA541C}
    .fil78 {fill:#EA551C}
    .fil77 {fill:#EB571C}
    .fil76 {fill:#EB581C}
    .fil75 {fill:#EB5A1D}
    .fil74 {fill:#EC5B1D}
    .fil73 {fill:#EC5C1D}
    .fil72 {fill:#EC5E1E}
    .fil71 {fill:#ED5F1E}
    .fil70 {fill:#ED611E}
    .fil69 {fill:#ED621E}
    .fil68 {fill:#EE631F}
    .fil67 {fill:#EE651F}
    .fil66 {fill:#EE661F}
    .fil65 {fill:#EF6820}
    .fil64 {fill:#EF6920}
    .fil63 {fill:#EF6A20}
    .fil62 {fill:#F06C20}
    .fil61 {fill:#F06D21}
    .fil60 {fill:#F06E21}
    .fil59 {fill:#F17021}
    .fil58 {fill:#F17122}
    .fil57 {fill:#F17222}
    .fil56 {fill:#F27322}
    .fil55 {fill:#F27422}
    .fil54 {fill:#F27522}
    .fil53 {fill:#F27622}
    .fil52 {fill:#F27723}
    .fil51 {fill:#F37823}
    .fil50 {fill:#F37923}
    .fil49 {fill:#F37A23}
    .fil48 {fill:#F47B24}
    .fil47 {fill:#F47C24}
    .fil46 {fill:#F47D24}
    .fil45 {fill:#F47E24}
    .fil44 {fill:#F47F24}
    .fil43 {fill:#F58025}
    .fil42 {fill:#F58125}
    .fil41 {fill:#F58225}
    .fil40 {fill:#F58325}
    .fil39 {fill:#F68425}
    .fil38 {fill:#F68525}
    .fil37 {fill:#F68626}
    .fil36 {fill:#F68726}
    .fil35 {fill:#F78826}
    .fil34 {fill:#F78926}
    .fil33 {fill:#F78A27}
    .fil32 {fill:#F78B27}
    .fil31 {fill:#F88C27}
    .fil30 {fill:#F88D27}
    .fil29 {fill:#F88E27}
    .fil28 {fill:#F88F28}
    .fil27 {fill:#F99028}
    .fil26 {fill:#F99128}
    .fil25 {fill:#F99228}
    .fil24 {fill:#F99328}
    .fil23 {fill:#FA9428}
    .fil22 {fill:#FA9529}
    .fil21 {fill:#FA9629}
    .fil20 {fill:#FA9729}
    .fil19 {fill:#FB9829}
    .fil18 {fill:#FB992A}
    .fil17 {fill:#FB9A2A}
    .fil16 {fill:#FB9B2A}
    .fil15 {fill:#FC9C2A}
    .fil14 {fill:#FC9D2A}
    .fil13 {fill:#FC9E2B}
    .fil12 {fill:#FC9F2B}
    .fil11 {fill:#FCA02B}
    .fil10 {fill:#FDA12B}
    .fil9 {fill:#FDA22B}
    .fil8 {fill:#FDA32B}
    .fil7 {fill:#FDA32C}
    .fil6 {fill:#FEA42C}
    .fil5 {fill:#FEA52C}
    .fil4 {fill:#FEA62C}
    .fil3 {fill:#FEA72C}
    .fil2 {fill:#FFA82D}
    .fil1 {fill:#FFA92D}
    .fil0 {fill:#FFAA2D}
    .fil87 {fill:#5E2222;fill-rule:nonzero}
    .fil88 {fill:white;fill-rule:nonzero}
    .fil89 {fill:url(#id1);fill-rule:nonzero}
   ]]>
  </style>
     <clipPath id="id0">
      <path d="M50.9 12.44l36.66 36.66c0.49,0.5 0.49,1.3 0,1.8l-36.66 36.66c-0.5,0.49 -1.3,0.49 -1.8,0l-36.66 -36.66c-0.49,-0.5 -0.49,-1.3 0,-1.8l36.66 -36.66c0.5,-0.49 1.3,-0.49 1.8,0z"/>
     </clipPath>
  <linearGradient id="id1" gradientUnits="userSpaceOnUse" x1="49.59" y1="77.6" x2="49.59" y2="18.69">
   <stop offset="0" style="stop-opacity:1; stop-color:#C8C8C8"/>
   <stop offset="0.929412" style="stop-opacity:1; stop-color:whitesmoke"/>
   <stop offset="1" style="stop-opacity:1; stop-color:white"/>
  </linearGradient>
 </defs>
 <g id="Слой_x0020_1">
  <metadata id="CorelCorpID_0Corel-Layer"/>
  <g id="_2502005606768">
   <g>
    <g style="clip-path:url(#id0)">
     <polygon class="fil0" points="50,49.76 50.24,50 50,50.24 49.76,50 "/>
     <path id="1" class="fil0" d="M50 49.84l-0.16 0.16 0.16 0.16 0.16 -0.16 -0.16 -0.16zm0 -0.24l0.4 0.4 -0.4 0.4 -0.4 -0.4 0.4 -0.4z"/>
     <path id="2" class="fil0" d="M50 49.68l-0.32 0.32 0.32 0.32 0.32 -0.32 -0.32 -0.32zm0 -0.24l0.56 0.56 -0.56 0.56 -0.56 -0.56 0.56 -0.56z"/>
     <path id="3" class="fil0" d="M50 49.52l-0.48 0.48 0.48 0.48 0.48 -0.48 -0.48 -0.48zm0 -0.24l0.72 0.72 -0.72 0.72 -0.72 -0.72 0.72 -0.72z"/>
     <path id="4" class="fil0" d="M50 49.36l-0.64 0.64 0.64 0.64 0.64 -0.64 -0.64 -0.64zm0 -0.24l0.88 0.88 -0.88 0.88 -0.88 -0.88 0.88 -0.88z"/>
     <path id="5" class="fil0" d="M50 49.2l-0.8 0.8 0.8 0.8 0.8 -0.8 -0.8 -0.8zm0 -0.23l1.03 1.03 -1.03 1.04 -1.04 -1.04 1.04 -1.03z"/>
     <path id="6" class="fil0" d="M50 49.04l-0.96 0.96 0.96 0.96 0.96 -0.96 -0.96 -0.96zm0 -0.23l1.19 1.19 -1.19 1.19 -1.19 -1.19 1.19 -1.19z"/>
     <path id="7" class="fil0" d="M50 48.89l-1.11 1.11 1.11 1.11 1.11 -1.11 -1.11 -1.11zm0 -0.24l1.35 1.35 -1.35 1.35 -1.35 -1.35 1.35 -1.35z"/>
     <path id="8" class="fil0" d="M50 48.73l-1.27 1.27 1.27 1.27 1.27 -1.27 -1.27 -1.27zm0 -0.24l1.51 1.51 -1.51 1.51 -1.51 -1.51 1.51 -1.51z"/>
     <path id="9" class="fil0" d="M50 48.57l-1.43 1.43 1.43 1.43 1.43 -1.43 -1.43 -1.43zm0 -0.24l1.67 1.67 -1.67 1.67 -1.67 -1.67 1.67 -1.67z"/>
     <path id="10" class="fil0" d="M50 48.41l-1.59 1.59 1.59 1.59 1.59 -1.59 -1.59 -1.59zm0 -0.24l1.83 1.83 -1.83 1.83 -1.83 -1.83 1.83 -1.83z"/>
     <path id="11" class="fil0" d="M50 48.25l-1.75 1.75 1.75 1.75 1.75 -1.75 -1.75 -1.75zm0 -0.24l1.99 1.99 -1.99 1.99 -1.99 -1.99 1.99 -1.99z"/>
     <path id="12" class="fil0" d="M50 48.09l-1.91 1.91 1.91 1.91 1.91 -1.91 -1.91 -1.91zm0 -0.24l2.15 2.15 -2.15 2.15 -2.15 -2.15 2.15 -2.15z"/>
     <path id="13" class="fil0" d="M50 47.93l-2.07 2.07 2.07 2.07 2.07 -2.07 -2.07 -2.07zm0 -0.24l2.31 2.31 -2.31 2.31 -2.31 -2.31 2.31 -2.31z"/>
     <path id="14" class="fil0" d="M50 47.77l-2.23 2.23 2.23 2.23 2.23 -2.23 -2.23 -2.23zm0 -0.24l2.47 2.47 -2.47 2.47 -2.47 -2.47 2.47 -2.47z"/>
     <path id="15" class="fil0" d="M50 47.61l-2.39 2.39 2.39 2.39 2.39 -2.39 -2.39 -2.39zm0 -0.24l2.63 2.63 -2.63 2.63 -2.63 -2.63 2.63 -2.63z"/>
     <path id="16" class="fil0" d="M50 47.45l-2.55 2.55 2.55 2.55 2.55 -2.55 -2.55 -2.55zm0 -0.24l2.79 2.79 -2.79 2.79 -2.79 -2.79 2.79 -2.79z"/>
     <path id="17" class="fil0" d="M50 47.29l-2.71 2.71 2.71 2.71 2.71 -2.71 -2.71 -2.71zm0 -0.24l2.95 2.95 -2.95 2.95 -2.95 -2.95 2.95 -2.95z"/>
     <path id="18" class="fil0" d="M50 47.13l-2.87 2.87 2.87 2.87 2.87 -2.87 -2.87 -2.87zm0 -0.23l3.1 3.1 -3.1 3.11 -3.11 -3.11 3.11 -3.1z"/>
     <path id="19" class="fil0" d="M50 46.98l-3.03 3.02 3.03 3.03 3.02 -3.03 -3.02 -3.02zm0 -0.24l3.26 3.26 -3.26 3.26 -3.26 -3.26 3.26 -3.26z"/>
     <path id="20" class="fil0" d="M50 46.82l-3.18 3.18 3.18 3.18 3.18 -3.18 -3.18 -3.18zm0 -0.24l3.42 3.42 -3.42 3.42 -3.42 -3.42 3.42 -3.42z"/>
     <path id="21" class="fil0" d="M50 46.66l-3.34 3.34 3.34 3.34 3.34 -3.34 -3.34 -3.34zm0 -0.24l3.58 3.58 -3.58 3.58 -3.58 -3.58 3.58 -3.58z"/>
     <path id="22" class="fil0" d="M50 46.5l-3.5 3.5 3.5 3.5 3.5 -3.5 -3.5 -3.5zm0 -0.24l3.74 3.74 -3.74 3.74 -3.74 -3.74 3.74 -3.74z"/>
     <path id="23" class="fil0" d="M50 46.34l-3.66 3.66 3.66 3.66 3.66 -3.66 -3.66 -3.66zm0 -0.24l3.9 3.9 -3.9 3.9 -3.9 -3.9 3.9 -3.9z"/>
     <path id="24" class="fil0" d="M50 46.18l-3.82 3.82 3.82 3.82 3.82 -3.82 -3.82 -3.82zm0 -0.24l4.06 4.06 -4.06 4.06 -4.06 -4.06 4.06 -4.06z"/>
     <path id="25" class="fil0" d="M50 46.02l-3.98 3.98 3.98 3.98 3.98 -3.98 -3.98 -3.98zm0 -0.24l4.22 4.22 -4.22 4.22 -4.22 -4.22 4.22 -4.22z"/>
     <path id="26" class="fil0" d="M50 45.86l-4.14 4.14 4.14 4.14 4.14 -4.14 -4.14 -4.14zm0 -0.24l4.38 4.38 -4.38 4.38 -4.38 -4.38 4.38 -4.38z"/>
     <path id="27" class="fil0" d="M50 45.7l-4.3 4.3 4.3 4.3 4.3 -4.3 -4.3 -4.3zm0 -0.24l4.54 4.54 -4.54 4.54 -4.54 -4.54 4.54 -4.54z"/>
     <path id="28" class="fil0" d="M50 45.54l-4.46 4.46 4.46 4.46 4.46 -4.46 -4.46 -4.46zm0 -0.24l4.7 4.7 -4.7 4.7 -4.7 -4.7 4.7 -4.7z"/>
     <path id="29" class="fil0" d="M50 45.38l-4.62 4.62 4.62 4.62 4.62 -4.62 -4.62 -4.62zm0 -0.24l4.86 4.86 -4.86 4.86 -4.86 -4.86 4.86 -4.86z"/>
     <path id="30" class="fil0" d="M50 45.22l-4.78 4.78 4.78 4.78 4.78 -4.78 -4.78 -4.78zm0 -0.24l5.02 5.02 -5.02 5.02 -5.02 -5.02 5.02 -5.02z"/>
     <path id="31" class="fil0" d="M50 45.06l-4.94 4.94 4.94 4.94 4.94 -4.94 -4.94 -4.94zm0 -0.23l5.17 5.17 -5.17 5.18 -5.18 -5.18 5.18 -5.17z"/>
     <path id="32" class="fil0" d="M50 44.9l-5.1 5.1 5.1 5.1 5.1 -5.1 -5.1 -5.1zm0 -0.23l5.33 5.33 -5.33 5.33 -5.33 -5.33 5.33 -5.33z"/>
     <path id="33" class="fil0" d="M50 44.75l-5.25 5.25 5.25 5.25 5.25 -5.25 -5.25 -5.25zm0 -0.24l5.49 5.49 -5.49 5.49 -5.49 -5.49 5.49 -5.49z"/>
     <path id="34" class="fil0" d="M50 44.59l-5.41 5.41 5.41 5.41 5.41 -5.41 -5.41 -5.41zm0 -0.24l5.65 5.65 -5.65 5.65 -5.65 -5.65 5.65 -5.65z"/>
     <path id="35" class="fil0" d="M50 44.43l-5.57 5.57 5.57 5.57 5.57 -5.57 -5.57 -5.57zm0 -0.24l5.81 5.81 -5.81 5.81 -5.81 -5.81 5.81 -5.81z"/>
     <path id="36" class="fil0" d="M50 44.27l-5.73 5.73 5.73 5.73 5.73 -5.73 -5.73 -5.73zm0 -0.24l5.97 5.97 -5.97 5.97 -5.97 -5.97 5.97 -5.97z"/>
     <path id="37" class="fil0" d="M50 44.11l-5.89 5.89 5.89 5.89 5.89 -5.89 -5.89 -5.89zm0 -0.24l6.13 6.13 -6.13 6.13 -6.13 -6.13 6.13 -6.13z"/>
     <path id="38" class="fil0" d="M50 43.95l-6.05 6.05 6.05 6.05 6.05 -6.05 -6.05 -6.05zm0 -0.24l6.29 6.29 -6.29 6.29 -6.29 -6.29 6.29 -6.29z"/>
     <path id="39" class="fil0" d="M50 43.79l-6.21 6.21 6.21 6.21 6.21 -6.21 -6.21 -6.21zm0 -0.24l6.45 6.45 -6.45 6.45 -6.45 -6.45 6.45 -6.45z"/>
     <path id="40" class="fil0" d="M50 43.63l-6.37 6.37 6.37 6.37 6.37 -6.37 -6.37 -6.37zm0 -0.24l6.61 6.61 -6.61 6.61 -6.61 -6.61 6.61 -6.61z"/>
     <path id="41" class="fil0" d="M50 43.47l-6.53 6.53 6.53 6.53 6.53 -6.53 -6.53 -6.53zm0 -0.24l6.77 6.77 -6.77 6.77 -6.77 -6.77 6.77 -6.77z"/>
     <path id="42" class="fil0" d="M50 43.31l-6.69 6.69 6.69 6.69 6.69 -6.69 -6.69 -6.69zm0 -0.24l6.93 6.93 -6.93 6.93 -6.93 -6.93 6.93 -6.93z"/>
     <path id="43" class="fil0" d="M50 43.15l-6.85 6.85 6.85 6.85 6.85 -6.85 -6.85 -6.85zm0 -0.24l7.09 7.09 -7.09 7.09 -7.09 -7.09 7.09 -7.09z"/>
     <path id="44" class="fil0" d="M50 42.99l-7.01 7.01 7.01 7.01 7.01 -7.01 -7.01 -7.01zm0 -0.23l7.24 7.24 -7.24 7.24 -7.24 -7.24 7.24 -7.24z"/>
     <path id="45" class="fil0" d="M50 42.84l-7.17 7.16 7.17 7.17 7.16 -7.17 -7.16 -7.16zm0 -0.24l7.4 7.4 -7.4 7.4 -7.4 -7.4 7.4 -7.4z"/>
     <path id="46" class="fil0" d="M50 42.68l-7.32 7.32 7.32 7.32 7.32 -7.32 -7.32 -7.32zm0 -0.24l7.56 7.56 -7.56 7.56 -7.56 -7.56 7.56 -7.56z"/>
     <path id="47" class="fil0" d="M50 42.52l-7.48 7.48 7.48 7.48 7.48 -7.48 -7.48 -7.48zm0 -0.24l7.72 7.72 -7.72 7.72 -7.72 -7.72 7.72 -7.72z"/>
     <path id="48" class="fil0" d="M50 42.36l-7.64 7.64 7.64 7.64 7.64 -7.64 -7.64 -7.64zm0 -0.24l7.88 7.88 -7.88 7.88 -7.88 -7.88 7.88 -7.88z"/>
     <path id="49" class="fil0" d="M50 42.2l-7.8 7.8 7.8 7.8 7.8 -7.8 -7.8 -7.8zm0 -0.24l8.04 8.04 -8.04 8.04 -8.04 -8.04 8.04 -8.04z"/>
     <path id="50" class="fil0" d="M50 42.04l-7.96 7.96 7.96 7.96 7.96 -7.96 -7.96 -7.96zm0 -0.24l8.2 8.2 -8.2 8.2 -8.2 -8.2 8.2 -8.2z"/>
     <path id="51" class="fil0" d="M50 41.88l-8.12 8.12 8.12 8.12 8.12 -8.12 -8.12 -8.12zm0 -0.24l8.36 8.36 -8.36 8.36 -8.36 -8.36 8.36 -8.36z"/>
     <path id="52" class="fil0" d="M50 41.72l-8.28 8.28 8.28 8.28 8.28 -8.28 -8.28 -8.28zm0 -0.24l8.52 8.52 -8.52 8.52 -8.52 -8.52 8.52 -8.52z"/>
     <path id="53" class="fil0" d="M50 41.56l-8.44 8.44 8.44 8.44 8.44 -8.44 -8.44 -8.44zm0 -0.24l8.68 8.68 -8.68 8.68 -8.68 -8.68 8.68 -8.68z"/>
     <path id="54" class="fil0" d="M50 41.4l-8.6 8.6 8.6 8.6 8.6 -8.6 -8.6 -8.6zm0 -0.24l8.84 8.84 -8.84 8.84 -8.84 -8.84 8.84 -8.84z"/>
     <path id="55" class="fil0" d="M50 41.24l-8.76 8.76 8.76 8.76 8.76 -8.76 -8.76 -8.76zm0 -0.24l9 9 -9 9 -9 -9 9 -9z"/>
     <path id="56" class="fil0" d="M50 41.08l-8.92 8.92 8.92 8.92 8.92 -8.92 -8.92 -8.92zm0 -0.23l9.15 9.15 -9.15 9.16 -9.16 -9.16 9.16 -9.15z"/>
     <path id="57" class="fil0" d="M50 40.92l-9.08 9.08 9.08 9.08 9.08 -9.08 -9.08 -9.08zm0 -0.23l9.31 9.31 -9.31 9.32 -9.32 -9.32 9.32 -9.31z"/>
     <path id="58" class="fil0" d="M50 40.76l-9.24 9.24 9.24 9.24 9.24 -9.24 -9.24 -9.24zm0 -0.23l9.47 9.47 -9.47 9.47 -9.47 -9.47 9.47 -9.47z"/>
     <path id="59" class="fil0" d="M50 40.61l-9.39 9.39 9.39 9.39 9.39 -9.39 -9.39 -9.39zm0 -0.24l9.63 9.63 -9.63 9.63 -9.63 -9.63 9.63 -9.63z"/>
     <path id="60" class="fil0" d="M50 40.45l-9.55 9.55 9.55 9.55 9.55 -9.55 -9.55 -9.55zm0 -0.24l9.79 9.79 -9.79 9.79 -9.79 -9.79 9.79 -9.79z"/>
     <path id="61" class="fil0" d="M50 40.29l-9.71 9.71 9.71 9.71 9.71 -9.71 -9.71 -9.71zm0 -0.24l9.95 9.95 -9.95 9.95 -9.95 -9.95 9.95 -9.95z"/>
     <path id="62" class="fil0" d="M50 40.13l-9.87 9.87 9.87 9.87 9.87 -9.87 -9.87 -9.87zm0 -0.24l10.11 10.11 -10.11 10.11 -10.11 -10.11 10.11 -10.11z"/>
     <path id="63" class="fil0" d="M50 39.97l-10.03 10.03 10.03 10.03 10.03 -10.03 -10.03 -10.03zm0 -0.24l10.27 10.27 -10.27 10.27 -10.27 -10.27 10.27 -10.27z"/>
     <path id="64" class="fil0" d="M50 39.81l-10.19 10.19 10.19 10.19 10.19 -10.19 -10.19 -10.19zm0 -0.24l10.43 10.43 -10.43 10.43 -10.43 -10.43 10.43 -10.43z"/>
     <path id="65" class="fil0" d="M50 39.65l-10.35 10.35 10.35 10.35 10.35 -10.35 -10.35 -10.35zm0 -0.24l10.59 10.59 -10.59 10.59 -10.59 -10.59 10.59 -10.59z"/>
     <path id="66" class="fil0" d="M50 39.49l-10.51 10.51 10.51 10.51 10.51 -10.51 -10.51 -10.51zm0 -0.24l10.75 10.75 -10.75 10.75 -10.75 -10.75 10.75 -10.75z"/>
     <path id="67" class="fil0" d="M50 39.33l-10.67 10.67 10.67 10.67 10.67 -10.67 -10.67 -10.67zm0 -0.24l10.91 10.91 -10.91 10.91 -10.91 -10.91 10.91 -10.91z"/>
     <path id="68" class="fil0" d="M50 39.17l-10.83 10.83 10.83 10.83 10.83 -10.83 -10.83 -10.83zm0 -0.24l11.07 11.07 -11.07 11.07 -11.07 -11.07 11.07 -11.07z"/>
     <path id="69" class="fil0" d="M50 39.01l-10.99 10.99 10.99 10.99 10.99 -10.99 -10.99 -10.99zm0 -0.24l11.23 11.23 -11.23 11.23 -11.23 -11.23 11.23 -11.23z"/>
     <path id="70" class="fil0" d="M50 38.86l-11.15 11.14 11.15 11.15 11.14 -11.15 -11.14 -11.14zm0 -0.24l11.38 11.38 -11.38 11.38 -11.38 -11.38 11.38 -11.38z"/>
     <path id="71" class="fil0" d="M50 38.7l-11.31 11.3 11.31 11.31 11.3 -11.31 -11.3 -11.3zm0 -0.24l11.54 11.54 -11.54 11.54 -11.54 -11.54 11.54 -11.54z"/>
     <path id="72" class="fil0" d="M50 38.54l-11.46 11.46 11.46 11.46 11.46 -11.46 -11.46 -11.46zm0 -0.24l11.7 11.7 -11.7 11.7 -11.7 -11.7 11.7 -11.7z"/>
     <path id="73" class="fil0" d="M50 38.38l-11.62 11.62 11.62 11.62 11.62 -11.62 -11.62 -11.62zm0 -0.24l11.86 11.86 -11.86 11.86 -11.86 -11.86 11.86 -11.86z"/>
     <path id="74" class="fil0" d="M50 38.22l-11.78 11.78 11.78 11.78 11.78 -11.78 -11.78 -11.78zm0 -0.24l12.02 12.02 -12.02 12.02 -12.02 -12.02 12.02 -12.02z"/>
     <path id="75" class="fil0" d="M50 38.06l-11.94 11.94 11.94 11.94 11.94 -11.94 -11.94 -11.94zm0 -0.24l12.18 12.18 -12.18 12.18 -12.18 -12.18 12.18 -12.18z"/>
     <path id="76" class="fil0" d="M50 37.9l-12.1 12.1 12.1 12.1 12.1 -12.1 -12.1 -12.1zm0 -0.24l12.34 12.34 -12.34 12.34 -12.34 -12.34 12.34 -12.34z"/>
     <path id="77" class="fil0" d="M50 37.74l-12.26 12.26 12.26 12.26 12.26 -12.26 -12.26 -12.26zm0 -0.24l12.5 12.5 -12.5 12.5 -12.5 -12.5 12.5 -12.5z"/>
     <path id="78" class="fil0" d="M50 37.58l-12.42 12.42 12.42 12.42 12.42 -12.42 -12.42 -12.42zm0 -0.24l12.66 12.66 -12.66 12.66 -12.66 -12.66 12.66 -12.66z"/>
     <path id="79" class="fil0" d="M50 37.42l-12.58 12.58 12.58 12.58 12.58 -12.58 -12.58 -12.58zm0 -0.24l12.82 12.82 -12.82 12.82 -12.82 -12.82 12.82 -12.82z"/>
     <path id="80" class="fil0" d="M50 37.26l-12.74 12.74 12.74 12.74 12.74 -12.74 -12.74 -12.74zm0 -0.24l12.98 12.98 -12.98 12.98 -12.98 -12.98 12.98 -12.98z"/>
     <path id="81" class="fil0" d="M50 37.1l-12.9 12.9 12.9 12.9 12.9 -12.9 -12.9 -12.9zm0 -0.24l13.14 13.14 -13.14 13.14 -13.14 -13.14 13.14 -13.14z"/>
     <path id="82" class="fil0" d="M50 36.94l-13.06 13.06 13.06 13.06 13.06 -13.06 -13.06 -13.06zm0 -0.23l13.29 13.29 -13.29 13.3 -13.3 -13.3 13.3 -13.29z"/>
     <path id="83" class="fil0" d="M50 36.78l-13.22 13.22 13.22 13.22 13.22 -13.22 -13.22 -13.22zm0 -0.23l13.45 13.45 -13.45 13.46 -13.46 -13.46 13.46 -13.45z"/>
     <path id="84" class="fil0" d="M50 36.63l-13.37 13.37 13.37 13.37 13.37 -13.37 -13.37 -13.37zm0 -0.24l13.61 13.61 -13.61 13.61 -13.61 -13.61 13.61 -13.61z"/>
     <path id="85" class="fil0" d="M50 36.47l-13.53 13.53 13.53 13.53 13.53 -13.53 -13.53 -13.53zm0 -0.24l13.77 13.77 -13.77 13.77 -13.77 -13.77 13.77 -13.77z"/>
     <path id="86" class="fil0" d="M50 36.31l-13.69 13.69 13.69 13.69 13.69 -13.69 -13.69 -13.69zm0 -0.24l13.93 13.93 -13.93 13.93 -13.93 -13.93 13.93 -13.93z"/>
     <path id="87" class="fil0" d="M50 36.15l-13.85 13.85 13.85 13.85 13.85 -13.85 -13.85 -13.85zm0 -0.24l14.09 14.09 -14.09 14.09 -14.09 -14.09 14.09 -14.09z"/>
     <path id="88" class="fil0" d="M50 35.99l-14.01 14.01 14.01 14.01 14.01 -14.01 -14.01 -14.01zm0 -0.24l14.25 14.25 -14.25 14.25 -14.25 -14.25 14.25 -14.25z"/>
     <path id="89" class="fil0" d="M50 35.83l-14.17 14.17 14.17 14.17 14.17 -14.17 -14.17 -14.17zm0 -0.24l14.41 14.41 -14.41 14.41 -14.41 -14.41 14.41 -14.41z"/>
     <path id="90" class="fil0" d="M50 35.67l-14.33 14.33 14.33 14.33 14.33 -14.33 -14.33 -14.33zm0 -0.24l14.57 14.57 -14.57 14.57 -14.57 -14.57 14.57 -14.57z"/>
     <path id="91" class="fil0" d="M50 35.51l-14.49 14.49 14.49 14.49 14.49 -14.49 -14.49 -14.49zm0 -0.24l14.73 14.73 -14.73 14.73 -14.73 -14.73 14.73 -14.73z"/>
     <path id="92" class="fil0" d="M50 35.35l-14.65 14.65 14.65 14.65 14.65 -14.65 -14.65 -14.65zm0 -0.24l14.89 14.89 -14.89 14.89 -14.89 -14.89 14.89 -14.89z"/>
     <path id="93" class="fil0" d="M50 35.19l-14.81 14.81 14.81 14.81 14.81 -14.81 -14.81 -14.81zm0 -0.24l15.05 15.05 -15.05 15.05 -15.05 -15.05 15.05 -15.05z"/>
     <path id="94" class="fil0" d="M50 35.03l-14.97 14.97 14.97 14.97 14.97 -14.97 -14.97 -14.97zm0 -0.24l15.21 15.21 -15.21 15.21 -15.21 -15.21 15.21 -15.21z"/>
     <path id="95" class="fil0" d="M50 34.87l-15.13 15.13 15.13 15.13 15.13 -15.13 -15.13 -15.13zm0 -0.24l15.37 15.37 -15.37 15.37 -15.37 -15.37 15.37 -15.37z"/>
     <path id="96" class="fil0" d="M50 34.72l-15.29 15.28 15.29 15.29 15.28 -15.29 -15.28 -15.28zm0 -0.24l15.52 15.52 -15.52 15.52 -15.52 -15.52 15.52 -15.52z"/>
     <path id="97" class="fil0" d="M50 34.56l-15.45 15.44 15.45 15.45 15.44 -15.45 -15.44 -15.44zm0 -0.24l15.68 15.68 -15.68 15.68 -15.68 -15.68 15.68 -15.68z"/>
     <path id="98" class="fil0" d="M50 34.4l-15.6 15.6 15.6 15.6 15.6 -15.6 -15.6 -15.6zm0 -0.24l15.84 15.84 -15.84 15.84 -15.84 -15.84 15.84 -15.84z"/>
     <path id="99" class="fil0" d="M50 34.24l-15.76 15.76 15.76 15.76 15.76 -15.76 -15.76 -15.76zm0 -0.24l16 16 -16 16 -16 -16 16 -16z"/>
     <path id="100" class="fil0" d="M50 34.08l-15.92 15.92 15.92 15.92 15.92 -15.92 -15.92 -15.92zm0 -0.24l16.16 16.16 -16.16 16.16 -16.16 -16.16 16.16 -16.16z"/>
     <path id="101" class="fil0" d="M50 33.92l-16.08 16.08 16.08 16.08 16.08 -16.08 -16.08 -16.08zm0 -0.24l16.32 16.32 -16.32 16.32 -16.32 -16.32 16.32 -16.32z"/>
     <path id="102" class="fil0" d="M50 33.76l-16.24 16.24 16.24 16.24 16.24 -16.24 -16.24 -16.24zm0 -0.24l16.48 16.48 -16.48 16.48 -16.48 -16.48 16.48 -16.48z"/>
     <path id="103" class="fil0" d="M50 33.6l-16.4 16.4 16.4 16.4 16.4 -16.4 -16.4 -16.4zm0 -0.24l16.64 16.64 -16.64 16.64 -16.64 -16.64 16.64 -16.64z"/>
     <path id="104" class="fil0" d="M50 33.44l-16.56 16.56 16.56 16.56 16.56 -16.56 -16.56 -16.56zm0 -0.24l16.8 16.8 -16.8 16.8 -16.8 -16.8 16.8 -16.8z"/>
     <path id="105" class="fil0" d="M50 33.28l-16.72 16.72 16.72 16.72 16.72 -16.72 -16.72 -16.72zm0 -0.24l16.96 16.96 -16.96 16.96 -16.96 -16.96 16.96 -16.96z"/>
     <path id="106" class="fil0" d="M50 33.12l-16.88 16.88 16.88 16.88 16.88 -16.88 -16.88 -16.88zm0 -0.24l17.12 17.12 -17.12 17.12 -17.12 -17.12 17.12 -17.12z"/>
     <path id="107" class="fil0" d="M50 32.96l-17.04 17.04 17.04 17.04 17.04 -17.04 -17.04 -17.04zm0 -0.23l17.27 17.27 -17.27 17.28 -17.28 -17.28 17.28 -17.27z"/>
     <path id="108" class="fil0" d="M50 32.8l-17.2 17.2 17.2 17.2 17.2 -17.2 -17.2 -17.2zm0 -0.23l17.43 17.43 -17.43 17.44 -17.44 -17.44 17.44 -17.43z"/>
     <path id="109" class="fil0" d="M50 32.64l-17.36 17.36 17.36 17.36 17.36 -17.36 -17.36 -17.36zm0 -0.23l17.59 17.59 -17.59 17.6 -17.6 -17.6 17.6 -17.59z"/>
     <path id="110" class="fil0" d="M50 32.49l-17.51 17.51 17.51 17.51 17.51 -17.51 -17.51 -17.51zm0 -0.24l17.75 17.75 -17.75 17.75 -17.75 -17.75 17.75 -17.75z"/>
     <path id="111" class="fil0" d="M50 32.33l-17.67 17.67 17.67 17.67 17.67 -17.67 -17.67 -17.67zm0 -0.24l17.91 17.91 -17.91 17.91 -17.91 -17.91 17.91 -17.91z"/>
     <path id="112" class="fil0" d="M50 32.17l-17.83 17.83 17.83 17.83 17.83 -17.83 -17.83 -17.83zm0 -0.24l18.07 18.07 -18.07 18.07 -18.07 -18.07 18.07 -18.07z"/>
     <path id="113" class="fil0" d="M50 32.01l-17.99 17.99 17.99 17.99 17.99 -17.99 -17.99 -17.99zm0 -0.24l18.23 18.23 -18.23 18.23 -18.23 -18.23 18.23 -18.23z"/>
     <path id="114" class="fil0" d="M50 31.85l-18.15 18.15 18.15 18.15 18.15 -18.15 -18.15 -18.15zm0 -0.24l18.39 18.39 -18.39 18.39 -18.39 -18.39 18.39 -18.39z"/>
     <path id="115" class="fil0" d="M50 31.69l-18.31 18.31 18.31 18.31 18.31 -18.31 -18.31 -18.31zm0 -0.24l18.55 18.55 -18.55 18.55 -18.55 -18.55 18.55 -18.55z"/>
     <path id="116" class="fil0" d="M50 31.53l-18.47 18.47 18.47 18.47 18.47 -18.47 -18.47 -18.47zm0 -0.24l18.71 18.71 -18.71 18.71 -18.71 -18.71 18.71 -18.71z"/>
     <path id="117" class="fil0" d="M50 31.37l-18.63 18.63 18.63 18.63 18.63 -18.63 -18.63 -18.63zm0 -0.24l18.87 18.87 -18.87 18.87 -18.87 -18.87 18.87 -18.87z"/>
     <path id="118" class="fil0" d="M50 31.21l-18.79 18.79 18.79 18.79 18.79 -18.79 -18.79 -18.79zm0 -0.24l19.03 19.03 -19.03 19.03 -19.03 -19.03 19.03 -19.03z"/>
     <path id="119" class="fil0" d="M50 31.05l-18.95 18.95 18.95 18.95 18.95 -18.95 -18.95 -18.95zm0 -0.24l19.19 19.19 -19.19 19.19 -19.19 -19.19 19.19 -19.19z"/>
     <path id="120" class="fil0" d="M50 30.89l-19.11 19.11 19.11 19.11 19.11 -19.11 -19.11 -19.11zm0 -0.24l19.35 19.35 -19.35 19.35 -19.35 -19.35 19.35 -19.35z"/>
     <path id="121" class="fil0" d="M50 30.73l-19.27 19.27 19.27 19.27 19.27 -19.27 -19.27 -19.27zm0 -0.23l19.5 19.5 -19.5 19.5 -19.5 -19.5 19.5 -19.5z"/>
     <path id="122" class="fil0" d="M50 30.58l-19.43 19.42 19.43 19.43 19.42 -19.43 -19.42 -19.42zm0 -0.24l19.66 19.66 -19.66 19.66 -19.66 -19.66 19.66 -19.66z"/>
     <path id="123" class="fil0" d="M50 30.42l-19.59 19.58 19.59 19.59 19.58 -19.59 -19.58 -19.58zm0 -0.24l19.82 19.82 -19.82 19.82 -19.82 -19.82 19.82 -19.82z"/>
     <path id="124" class="fil0" d="M50 30.26l-19.74 19.74 19.74 19.74 19.74 -19.74 -19.74 -19.74zm0 -0.24l19.98 19.98 -19.98 19.98 -19.98 -19.98 19.98 -19.98z"/>
     <path id="125" class="fil0" d="M50 30.1l-19.9 19.9 19.9 19.9 19.9 -19.9 -19.9 -19.9zm0 -0.24l20.14 20.14 -20.14 20.14 -20.14 -20.14 20.14 -20.14z"/>
     <path id="126" class="fil0" d="M50 29.94l-20.06 20.06 20.06 20.06 20.06 -20.06 -20.06 -20.06zm0 -0.24l20.3 20.3 -20.3 20.3 -20.3 -20.3 20.3 -20.3z"/>
     <path id="127" class="fil0" d="M50 29.78l-20.22 20.22 20.22 20.22 20.22 -20.22 -20.22 -20.22zm0 -0.24l20.46 20.46 -20.46 20.46 -20.46 -20.46 20.46 -20.46z"/>
     <path id="128" class="fil0" d="M50 29.62l-20.38 20.38 20.38 20.38 20.38 -20.38 -20.38 -20.38zm0 -0.24l20.62 20.62 -20.62 20.62 -20.62 -20.62 20.62 -20.62z"/>
     <path id="129" class="fil0" d="M50 29.46l-20.54 20.54 20.54 20.54 20.54 -20.54 -20.54 -20.54zm0 -0.24l20.78 20.78 -20.78 20.78 -20.78 -20.78 20.78 -20.78z"/>
     <path id="130" class="fil0" d="M50 29.3l-20.7 20.7 20.7 20.7 20.7 -20.7 -20.7 -20.7zm0 -0.24l20.94 20.94 -20.94 20.94 -20.94 -20.94 20.94 -20.94z"/>
     <path id="131" class="fil0" d="M50 29.14l-20.86 20.86 20.86 20.86 20.86 -20.86 -20.86 -20.86zm0 -0.24l21.1 21.1 -21.1 21.1 -21.1 -21.1 21.1 -21.1z"/>
     <path id="132" class="fil0" d="M50 28.98l-21.02 21.02 21.02 21.02 21.02 -21.02 -21.02 -21.02zm0 -0.24l21.26 21.26 -21.26 21.26 -21.26 -21.26 21.26 -21.26z"/>
     <path id="133" class="fil0" d="M50 28.82l-21.18 21.18 21.18 21.18 21.18 -21.18 -21.18 -21.18zm0 -0.23l21.41 21.41 -21.41 21.42 -21.42 -21.42 21.42 -21.41z"/>
     <path id="134" class="fil0" d="M50 28.66l-21.34 21.34 21.34 21.34 21.34 -21.34 -21.34 -21.34zm0 -0.23l21.57 21.57 -21.57 21.58 -21.58 -21.58 21.58 -21.57z"/>
     <path id="135" class="fil0" d="M50 28.5l-21.5 21.5 21.5 21.5 21.5 -21.5 -21.5 -21.5zm0 -0.23l21.73 21.73 -21.73 21.73 -21.73 -21.73 21.73 -21.73z"/>
     <path id="136" class="fil0" d="M50 28.35l-21.65 21.65 21.65 21.65 21.65 -21.65 -21.65 -21.65zm0 -0.24l21.89 21.89 -21.89 21.89 -21.89 -21.89 21.89 -21.89z"/>
     <path id="137" class="fil0" d="M50 28.19l-21.81 21.81 21.81 21.81 21.81 -21.81 -21.81 -21.81zm0 -0.24l22.05 22.05 -22.05 22.05 -22.05 -22.05 22.05 -22.05z"/>
     <path id="138" class="fil0" d="M50 28.03l-21.97 21.97 21.97 21.97 21.97 -21.97 -21.97 -21.97zm0 -0.24l22.21 22.21 -22.21 22.21 -22.21 -22.21 22.21 -22.21z"/>
     <path id="139" class="fil0" d="M50 27.87l-22.13 22.13 22.13 22.13 22.13 -22.13 -22.13 -22.13zm0 -0.24l22.37 22.37 -22.37 22.37 -22.37 -22.37 22.37 -22.37z"/>
     <path id="140" class="fil0" d="M50 27.71l-22.29 22.29 22.29 22.29 22.29 -22.29 -22.29 -22.29zm0 -0.24l22.53 22.53 -22.53 22.53 -22.53 -22.53 22.53 -22.53z"/>
     <path id="141" class="fil0" d="M50 27.55l-22.45 22.45 22.45 22.45 22.45 -22.45 -22.45 -22.45zm0 -0.24l22.69 22.69 -22.69 22.69 -22.69 -22.69 22.69 -22.69z"/>
     <path id="142" class="fil0" d="M50 27.39l-22.61 22.61 22.61 22.61 22.61 -22.61 -22.61 -22.61zm0 -0.24l22.85 22.85 -22.85 22.85 -22.85 -22.85 22.85 -22.85z"/>
     <path id="143" class="fil0" d="M50 27.23l-22.77 22.77 22.77 22.77 22.77 -22.77 -22.77 -22.77zm0 -0.24l23.01 23.01 -23.01 23.01 -23.01 -23.01 23.01 -23.01z"/>
     <path id="144" class="fil0" d="M50 27.07l-22.93 22.93 22.93 22.93 22.93 -22.93 -22.93 -22.93zm0 -0.24l23.17 23.17 -23.17 23.17 -23.17 -23.17 23.17 -23.17z"/>
     <path id="145" class="fil0" d="M50 26.91l-23.09 23.09 23.09 23.09 23.09 -23.09 -23.09 -23.09zm0 -0.24l23.33 23.33 -23.33 23.33 -23.33 -23.33 23.33 -23.33z"/>
     <path id="146" class="fil0" d="M50 26.75l-23.25 23.25 23.25 23.25 23.25 -23.25 -23.25 -23.25zm0 -0.24l23.49 23.49 -23.49 23.49 -23.49 -23.49 23.49 -23.49z"/>
     <path id="147" class="fil0" d="M50 26.6l-23.41 23.4 23.41 23.41 23.4 -23.41 -23.4 -23.4zm0 -0.24l23.64 23.64 -23.64 23.64 -23.64 -23.64 23.64 -23.64z"/>
     <path id="148" class="fil0" d="M50 26.44l-23.57 23.56 23.57 23.57 23.56 -23.57 -23.56 -23.56zm0 -0.24l23.8 23.8 -23.8 23.8 -23.8 -23.8 23.8 -23.8z"/>
     <path id="149" class="fil0" d="M50 26.28l-23.72 23.72 23.72 23.72 23.72 -23.72 -23.72 -23.72zm0 -0.24l23.96 23.96 -23.96 23.96 -23.96 -23.96 23.96 -23.96z"/>
     <path id="150" class="fil0" d="M50 26.12l-23.88 23.88 23.88 23.88 23.88 -23.88 -23.88 -23.88zm0 -0.24l24.12 24.12 -24.12 24.12 -24.12 -24.12 24.12 -24.12z"/>
     <path id="151" class="fil0" d="M50 25.96l-24.04 24.04 24.04 24.04 24.04 -24.04 -24.04 -24.04zm0 -0.24l24.28 24.28 -24.28 24.28 -24.28 -24.28 24.28 -24.28z"/>
     <path id="152" class="fil0" d="M50 25.8l-24.2 24.2 24.2 24.2 24.2 -24.2 -24.2 -24.2zm0 -0.24l24.44 24.44 -24.44 24.44 -24.44 -24.44 24.44 -24.44z"/>
     <path id="153" class="fil0" d="M50 25.64l-24.36 24.36 24.36 24.36 24.36 -24.36 -24.36 -24.36zm0 -0.24l24.6 24.6 -24.6 24.6 -24.6 -24.6 24.6 -24.6z"/>
     <path id="154" class="fil1" d="M50 25.48l-24.52 24.52 24.52 24.52 24.52 -24.52 -24.52 -24.52zm0 -0.24l24.76 24.76 -24.76 24.76 -24.76 -24.76 24.76 -24.76z"/>
     <path id="155" class="fil2" d="M50 25.32l-24.68 24.68 24.68 24.68 24.68 -24.68 -24.68 -24.68zm0 -0.24l24.92 24.92 -24.92 24.92 -24.92 -24.92 24.92 -24.92z"/>
     <path id="156" class="fil3" d="M50 25.16l-24.84 24.84 24.84 24.84 24.84 -24.84 -24.84 -24.84zm0 -0.24l25.08 25.08 -25.08 25.08 -25.08 -25.08 25.08 -25.08z"/>
     <path id="157" class="fil4" d="M50 25l-25 25 25 25 25 -25 -25 -25zm0 -0.24l25.24 25.24 -25.24 25.24 -25.24 -25.24 25.24 -25.24z"/>
     <path id="158" class="fil5" d="M50 24.84l-25.16 25.16 25.16 25.16 25.16 -25.16 -25.16 -25.16zm0 -0.24l25.4 25.4 -25.4 25.4 -25.4 -25.4 25.4 -25.4z"/>
     <path id="159" class="fil6" d="M50 24.68l-25.32 25.32 25.32 25.32 25.32 -25.32 -25.32 -25.32zm0 -0.23l25.55 25.55 -25.55 25.56 -25.56 -25.56 25.56 -25.55z"/>
     <path id="160" class="fil7" d="M50 24.52l-25.48 25.48 25.48 25.48 25.48 -25.48 -25.48 -25.48zm0 -0.23l25.71 25.71 -25.71 25.72 -25.72 -25.72 25.72 -25.71z"/>
     <path id="161" class="fil8" d="M50 24.37l-25.63 25.63 25.63 25.63 25.63 -25.63 -25.63 -25.63zm0 -0.24l25.87 25.87 -25.87 25.87 -25.87 -25.87 25.87 -25.87z"/>
     <path id="162" class="fil9" d="M50 24.21l-25.79 25.79 25.79 25.79 25.79 -25.79 -25.79 -25.79zm0 -0.24l26.03 26.03 -26.03 26.03 -26.03 -26.03 26.03 -26.03z"/>
     <path id="163" class="fil10" d="M50 24.05l-25.95 25.95 25.95 25.95 25.95 -25.95 -25.95 -25.95zm0 -0.24l26.19 26.19 -26.19 26.19 -26.19 -26.19 26.19 -26.19z"/>
     <path id="164" class="fil11" d="M50 23.89l-26.11 26.11 26.11 26.11 26.11 -26.11 -26.11 -26.11zm0 -0.24l26.35 26.35 -26.35 26.35 -26.35 -26.35 26.35 -26.35z"/>
     <path id="165" class="fil12" d="M50 23.73l-26.27 26.27 26.27 26.27 26.27 -26.27 -26.27 -26.27zm0 -0.24l26.51 26.51 -26.51 26.51 -26.51 -26.51 26.51 -26.51z"/>
     <path id="166" class="fil13" d="M50 23.57l-26.43 26.43 26.43 26.43 26.43 -26.43 -26.43 -26.43zm0 -0.24l26.67 26.67 -26.67 26.67 -26.67 -26.67 26.67 -26.67z"/>
     <path id="167" class="fil14" d="M50 23.41l-26.59 26.59 26.59 26.59 26.59 -26.59 -26.59 -26.59zm0 -0.24l26.83 26.83 -26.83 26.83 -26.83 -26.83 26.83 -26.83z"/>
     <path id="168" class="fil15" d="M50 23.25l-26.75 26.75 26.75 26.75 26.75 -26.75 -26.75 -26.75zm0 -0.24l26.99 26.99 -26.99 26.99 -26.99 -26.99 26.99 -26.99z"/>
     <path id="169" class="fil16" d="M50 23.09l-26.91 26.91 26.91 26.91 26.91 -26.91 -26.91 -26.91zm0 -0.24l27.15 27.15 -27.15 27.15 -27.15 -27.15 27.15 -27.15z"/>
     <path id="170" class="fil17" d="M50 22.93l-27.07 27.07 27.07 27.07 27.07 -27.07 -27.07 -27.07zm0 -0.24l27.31 27.31 -27.31 27.31 -27.31 -27.31 27.31 -27.31z"/>
     <path id="171" class="fil18" d="M50 22.77l-27.23 27.23 27.23 27.23 27.23 -27.23 -27.23 -27.23zm0 -0.24l27.47 27.47 -27.47 27.47 -27.47 -27.47 27.47 -27.47z"/>
     <path id="172" class="fil19" d="M50 22.61l-27.39 27.39 27.39 27.39 27.39 -27.39 -27.39 -27.39zm0 -0.24l27.63 27.63 -27.63 27.63 -27.63 -27.63 27.63 -27.63z"/>
     <path id="173" class="fil20" d="M50 22.46l-27.55 27.54 27.55 27.55 27.54 -27.55 -27.54 -27.54zm0 -0.24l27.78 27.78 -27.78 27.78 -27.78 -27.78 27.78 -27.78z"/>
     <path id="174" class="fil21" d="M50 22.3l-27.71 27.7 27.71 27.71 27.7 -27.71 -27.7 -27.7zm0 -0.24l27.94 27.94 -27.94 27.94 -27.94 -27.94 27.94 -27.94z"/>
     <path id="175" class="fil21" d="M50 22.14l-27.86 27.86 27.86 27.86 27.86 -27.86 -27.86 -27.86zm0 -0.24l28.1 28.1 -28.1 28.1 -28.1 -28.1 28.1 -28.1z"/>
     <path id="176" class="fil22" d="M50 21.98l-28.02 28.02 28.02 28.02 28.02 -28.02 -28.02 -28.02zm0 -0.24l28.26 28.26 -28.26 28.26 -28.26 -28.26 28.26 -28.26z"/>
     <path id="177" class="fil23" d="M50 21.82l-28.18 28.18 28.18 28.18 28.18 -28.18 -28.18 -28.18zm0 -0.24l28.42 28.42 -28.42 28.42 -28.42 -28.42 28.42 -28.42z"/>
     <path id="178" class="fil24" d="M50 21.66l-28.34 28.34 28.34 28.34 28.34 -28.34 -28.34 -28.34zm0 -0.24l28.58 28.58 -28.58 28.58 -28.58 -28.58 28.58 -28.58z"/>
     <path id="179" class="fil25" d="M50 21.5l-28.5 28.5 28.5 28.5 28.5 -28.5 -28.5 -28.5zm0 -0.24l28.74 28.74 -28.74 28.74 -28.74 -28.74 28.74 -28.74z"/>
     <path id="180" class="fil26" d="M50 21.34l-28.66 28.66 28.66 28.66 28.66 -28.66 -28.66 -28.66zm0 -0.24l28.9 28.9 -28.9 28.9 -28.9 -28.9 28.9 -28.9z"/>
     <path id="181" class="fil27" d="M50 21.18l-28.82 28.82 28.82 28.82 28.82 -28.82 -28.82 -28.82zm0 -0.24l29.06 29.06 -29.06 29.06 -29.06 -29.06 29.06 -29.06z"/>
     <path id="182" class="fil28" d="M50 21.02l-28.98 28.98 28.98 28.98 28.98 -28.98 -28.98 -28.98zm0 -0.24l29.22 29.22 -29.22 29.22 -29.22 -29.22 29.22 -29.22z"/>
     <path id="183" class="fil29" d="M50 20.86l-29.14 29.14 29.14 29.14 29.14 -29.14 -29.14 -29.14zm0 -0.24l29.38 29.38 -29.38 29.38 -29.38 -29.38 29.38 -29.38z"/>
     <path id="184" class="fil30" d="M50 20.7l-29.3 29.3 29.3 29.3 29.3 -29.3 -29.3 -29.3zm0 -0.24l29.54 29.54 -29.54 29.54 -29.54 -29.54 29.54 -29.54z"/>
     <path id="185" class="fil31" d="M50 20.54l-29.46 29.46 29.46 29.46 29.46 -29.46 -29.46 -29.46zm0 -0.23l29.69 29.69 -29.69 29.7 -29.7 -29.7 29.7 -29.69z"/>
     <path id="186" class="fil32" d="M50 20.38l-29.62 29.62 29.62 29.62 29.62 -29.62 -29.62 -29.62zm0 -0.23l29.85 29.85 -29.85 29.85 -29.85 -29.85 29.85 -29.85z"/>
     <path id="187" class="fil33" d="M50 20.23l-29.77 29.77 29.77 29.77 29.77 -29.77 -29.77 -29.77zm0 -0.24l30.01 30.01 -30.01 30.01 -30.01 -30.01 30.01 -30.01z"/>
     <path id="188" class="fil34" d="M50 20.07l-29.93 29.93 29.93 29.93 29.93 -29.93 -29.93 -29.93zm0 -0.24l30.17 30.17 -30.17 30.17 -30.17 -30.17 30.17 -30.17z"/>
     <path id="189" class="fil35" d="M50 19.91l-30.09 30.09 30.09 30.09 30.09 -30.09 -30.09 -30.09zm0 -0.24l30.33 30.33 -30.33 30.33 -30.33 -30.33 30.33 -30.33z"/>
     <path id="190" class="fil35" d="M50 19.75l-30.25 30.25 30.25 30.25 30.25 -30.25 -30.25 -30.25zm0 -0.24l30.49 30.49 -30.49 30.49 -30.49 -30.49 30.49 -30.49z"/>
     <path id="191" class="fil36" d="M50 19.59l-30.41 30.41 30.41 30.41 30.41 -30.41 -30.41 -30.41zm0 -0.24l30.65 30.65 -30.65 30.65 -30.65 -30.65 30.65 -30.65z"/>
     <path id="192" class="fil37" d="M50 19.43l-30.57 30.57 30.57 30.57 30.57 -30.57 -30.57 -30.57zm0 -0.24l30.81 30.81 -30.81 30.81 -30.81 -30.81 30.81 -30.81z"/>
     <path id="193" class="fil38" d="M50 19.27l-30.73 30.73 30.73 30.73 30.73 -30.73 -30.73 -30.73zm0 -0.24l30.97 30.97 -30.97 30.97 -30.97 -30.97 30.97 -30.97z"/>
     <path id="194" class="fil39" d="M50 19.11l-30.89 30.89 30.89 30.89 30.89 -30.89 -30.89 -30.89zm0 -0.24l31.13 31.13 -31.13 31.13 -31.13 -31.13 31.13 -31.13z"/>
     <path id="195" class="fil40" d="M50 18.95l-31.05 31.05 31.05 31.05 31.05 -31.05 -31.05 -31.05zm0 -0.24l31.29 31.29 -31.29 31.29 -31.29 -31.29 31.29 -31.29z"/>
     <path id="196" class="fil41" d="M50 18.79l-31.21 31.21 31.21 31.21 31.21 -31.21 -31.21 -31.21zm0 -0.24l31.45 31.45 -31.45 31.45 -31.45 -31.45 31.45 -31.45z"/>
     <path id="197" class="fil42" d="M50 18.63l-31.37 31.37 31.37 31.37 31.37 -31.37 -31.37 -31.37zm0 -0.24l31.61 31.61 -31.61 31.61 -31.61 -31.61 31.61 -31.61z"/>
     <path id="198" class="fil43" d="M50 18.47l-31.53 31.53 31.53 31.53 31.53 -31.53 -31.53 -31.53zm0 -0.23l31.76 31.76 -31.76 31.76 -31.76 -31.76 31.76 -31.76z"/>
     <path id="199" class="fil44" d="M50 18.32l-31.69 31.68 31.69 31.69 31.68 -31.69 -31.68 -31.68zm0 -0.24l31.92 31.92 -31.92 31.92 -31.92 -31.92 31.92 -31.92z"/>
     <path id="200" class="fil45" d="M50 18.16l-31.85 31.84 31.85 31.85 31.84 -31.85 -31.84 -31.84zm0 -0.24l32.08 32.08 -32.08 32.08 -32.08 -32.08 32.08 -32.08z"/>
     <path id="201" class="fil46" d="M50 18l-32 32 32 32 32 -32 -32 -32zm0 -0.24l32.24 32.24 -32.24 32.24 -32.24 -32.24 32.24 -32.24z"/>
     <path id="202" class="fil47" d="M50 17.84l-32.16 32.16 32.16 32.16 32.16 -32.16 -32.16 -32.16zm0 -0.24l32.4 32.4 -32.4 32.4 -32.4 -32.4 32.4 -32.4z"/>
     <path id="203" class="fil48" d="M50 17.68l-32.32 32.32 32.32 32.32 32.32 -32.32 -32.32 -32.32zm0 -0.24l32.56 32.56 -32.56 32.56 -32.56 -32.56 32.56 -32.56z"/>
     <path id="204" class="fil49" d="M50 17.52l-32.48 32.48 32.48 32.48 32.48 -32.48 -32.48 -32.48zm0 -0.24l32.72 32.72 -32.72 32.72 -32.72 -32.72 32.72 -32.72z"/>
     <path id="205" class="fil49" d="M50 17.36l-32.64 32.64 32.64 32.64 32.64 -32.64 -32.64 -32.64zm0 -0.24l32.88 32.88 -32.88 32.88 -32.88 -32.88 32.88 -32.88z"/>
     <path id="206" class="fil50" d="M50 17.2l-32.8 32.8 32.8 32.8 32.8 -32.8 -32.8 -32.8zm0 -0.24l33.04 33.04 -33.04 33.04 -33.04 -33.04 33.04 -33.04z"/>
     <path id="207" class="fil51" d="M50 17.04l-32.96 32.96 32.96 32.96 32.96 -32.96 -32.96 -32.96zm0 -0.24l33.2 33.2 -33.2 33.2 -33.2 -33.2 33.2 -33.2z"/>
     <path id="208" class="fil52" d="M50 16.88l-33.12 33.12 33.12 33.12 33.12 -33.12 -33.12 -33.12zm0 -0.24l33.36 33.36 -33.36 33.36 -33.36 -33.36 33.36 -33.36z"/>
     <path id="209" class="fil53" d="M50 16.72l-33.28 33.28 33.28 33.28 33.28 -33.28 -33.28 -33.28zm0 -0.24l33.52 33.52 -33.52 33.52 -33.52 -33.52 33.52 -33.52z"/>
     <path id="210" class="fil54" d="M50 16.56l-33.44 33.44 33.44 33.44 33.44 -33.44 -33.44 -33.44zm0 -0.24l33.68 33.68 -33.68 33.68 -33.68 -33.68 33.68 -33.68z"/>
     <path id="211" class="fil55" d="M50 16.4l-33.6 33.6 33.6 33.6 33.6 -33.6 -33.6 -33.6zm0 -0.23l33.83 33.83 -33.83 33.84 -33.84 -33.84 33.84 -33.83z"/>
     <path id="212" class="fil56" d="M50 16.25l-33.76 33.75 33.76 33.76 33.75 -33.76 -33.75 -33.75zm0 -0.24l33.99 33.99 -33.99 33.99 -33.99 -33.99 33.99 -33.99z"/>
     <path id="213" class="fil57" d="M50 16.09l-33.91 33.91 33.91 33.91 33.91 -33.91 -33.91 -33.91zm0 -0.24l34.15 34.15 -34.15 34.15 -34.15 -34.15 34.15 -34.15z"/>
     <path id="214" class="fil58" d="M50 15.93l-34.07 34.07 34.07 34.07 34.07 -34.07 -34.07 -34.07zm0 -0.24l34.31 34.31 -34.31 34.31 -34.31 -34.31 34.31 -34.31z"/>
     <path id="215" class="fil59" d="M50 15.77l-34.23 34.23 34.23 34.23 34.23 -34.23 -34.23 -34.23zm0 -0.24l34.47 34.47 -34.47 34.47 -34.47 -34.47 34.47 -34.47z"/>
     <path id="216" class="fil60" d="M50 15.61l-34.39 34.39 34.39 34.39 34.39 -34.39 -34.39 -34.39zm0 -0.24l34.63 34.63 -34.63 34.63 -34.63 -34.63 34.63 -34.63z"/>
     <path id="217" class="fil61" d="M50 15.45l-34.55 34.55 34.55 34.55 34.55 -34.55 -34.55 -34.55zm0 -0.24l34.79 34.79 -34.79 34.79 -34.79 -34.79 34.79 -34.79z"/>
     <path id="218" class="fil62" d="M50 15.29l-34.71 34.71 34.71 34.71 34.71 -34.71 -34.71 -34.71zm0 -0.24l34.95 34.95 -34.95 34.95 -34.95 -34.95 34.95 -34.95z"/>
     <path id="219" class="fil63" d="M50 15.13l-34.87 34.87 34.87 34.87 34.87 -34.87 -34.87 -34.87zm0 -0.24l35.11 35.11 -35.11 35.11 -35.11 -35.11 35.11 -35.11z"/>
     <path id="220" class="fil64" d="M50 14.97l-35.03 35.03 35.03 35.03 35.03 -35.03 -35.03 -35.03zm0 -0.24l35.27 35.27 -35.27 35.27 -35.27 -35.27 35.27 -35.27z"/>
     <path id="221" class="fil65" d="M50 14.81l-35.19 35.19 35.19 35.19 35.19 -35.19 -35.19 -35.19zm0 -0.24l35.43 35.43 -35.43 35.43 -35.43 -35.43 35.43 -35.43z"/>
     <path id="222" class="fil66" d="M50 14.65l-35.35 35.35 35.35 35.35 35.35 -35.35 -35.35 -35.35zm0 -0.24l35.59 35.59 -35.59 35.59 -35.59 -35.59 35.59 -35.59z"/>
     <path id="223" class="fil67" d="M50 14.49l-35.51 35.51 35.51 35.51 35.51 -35.51 -35.51 -35.51zm0 -0.24l35.75 35.75 -35.75 35.75 -35.75 -35.75 35.75 -35.75z"/>
     <path id="224" class="fil68" d="M50 14.33l-35.67 35.67 35.67 35.67 35.67 -35.67 -35.67 -35.67zm0 -0.23l35.9 35.9 -35.9 35.9 -35.9 -35.9 35.9 -35.9z"/>
     <path id="225" class="fil69" d="M50 14.18l-35.83 35.82 35.83 35.83 35.83 -35.83 -35.83 -35.82zm0 -0.24l36.06 36.06 -36.06 36.06 -36.06 -36.06 36.06 -36.06z"/>
     <path id="226" class="fil70" d="M50 14.02l-35.98 35.98 35.98 35.98 35.98 -35.98 -35.98 -35.98zm0 -0.24l36.22 36.22 -36.22 36.22 -36.22 -36.22 36.22 -36.22z"/>
     <path id="227" class="fil71" d="M50 13.86l-36.14 36.14 36.14 36.14 36.14 -36.14 -36.14 -36.14zm0 -0.24l36.38 36.38 -36.38 36.38 -36.38 -36.38 36.38 -36.38z"/>
     <path id="228" class="fil72" d="M50 13.7l-36.3 36.3 36.3 36.3 36.3 -36.3 -36.3 -36.3zm0 -0.24l36.54 36.54 -36.54 36.54 -36.54 -36.54 36.54 -36.54z"/>
     <path id="229" class="fil73" d="M50 13.54l-36.46 36.46 36.46 36.46 36.46 -36.46 -36.46 -36.46zm0 -0.24l36.7 36.7 -36.7 36.7 -36.7 -36.7 36.7 -36.7z"/>
     <path id="230" class="fil74" d="M50 13.38l-36.62 36.62 36.62 36.62 36.62 -36.62 -36.62 -36.62zm0 -0.24l36.86 36.86 -36.86 36.86 -36.86 -36.86 36.86 -36.86z"/>
     <path id="231" class="fil75" d="M50 13.22l-36.78 36.78 36.78 36.78 36.78 -36.78 -36.78 -36.78zm0 -0.24l37.02 37.02 -37.02 37.02 -37.02 -37.02 37.02 -37.02z"/>
     <path id="232" class="fil76" d="M50 13.06l-36.94 36.94 36.94 36.94 36.94 -36.94 -36.94 -36.94zm0 -0.24l37.18 37.18 -37.18 37.18 -37.18 -37.18 37.18 -37.18z"/>
     <path id="233" class="fil77" d="M50 12.9l-37.1 37.1 37.1 37.1 37.1 -37.1 -37.1 -37.1zm0 -0.24l37.34 37.34 -37.34 37.34 -37.34 -37.34 37.34 -37.34z"/>
     <path id="234" class="fil78" d="M50 12.74l-37.26 37.26 37.26 37.26 37.26 -37.26 -37.26 -37.26zm0 -0.24l37.5 37.5 -37.5 37.5 -37.5 -37.5 37.5 -37.5z"/>
     <path id="235" class="fil79" d="M50 12.58l-37.42 37.42 37.42 37.42 37.42 -37.42 -37.42 -37.42zm0 -0.24l37.66 37.66 -37.66 37.66 -37.66 -37.66 37.66 -37.66z"/>
     <path id="236" class="fil80" d="M50 12.42l-37.58 37.58 37.58 37.58 37.58 -37.58 -37.58 -37.58zm0 -0.24l37.82 37.82 -37.82 37.82 -37.82 -37.82 37.82 -37.82z"/>
     <path id="237" class="fil81" d="M50 12.26l-37.74 37.74 37.74 37.74 37.74 -37.74 -37.74 -37.74zm0 -0.23l37.97 37.97 -37.97 37.98 -37.98 -37.98 37.98 -37.97z"/>
     <path id="238" class="fil82" d="M50 12.11l-37.9 37.89 37.9 37.9 37.89 -37.9 -37.89 -37.89zm0 -0.24l38.13 38.13 -38.13 38.13 -38.13 -38.13 38.13 -38.13z"/>
     <path id="239" class="fil83" d="M50 11.95l-38.05 38.05 38.05 38.05 38.05 -38.05 -38.05 -38.05zm0 -0.24l38.29 38.29 -38.29 38.29 -38.29 -38.29 38.29 -38.29z"/>
     <path id="240" class="fil84" d="M50 11.79l-38.21 38.21 38.21 38.21 38.21 -38.21 -38.21 -38.21zm0 -0.24l38.45 38.45 -38.45 38.45 -38.45 -38.45 38.45 -38.45z"/>
     <path id="241" class="fil85" d="M50 11.63l-38.37 38.37 38.37 38.37 38.37 -38.37 -38.37 -38.37zm0 -0.24l38.61 38.61 -38.61 38.61 -38.61 -38.61 38.61 -38.61z"/>
     <path id="242" class="fil86" d="M50 11.47l-38.53 38.53 38.53 38.53 38.53 -38.53 -38.53 -38.53zm0 -0.16l38.69 38.69 -38.69 38.69 -38.69 -38.69 38.69 -38.69z"/>
    </g>
   </g>
   <path class="fil87" d="M47.53 98.98l-46.51 -46.51c-0.65,-0.73 -1.02,-1.47 -1.02,-2.47 0,-0.89 0.34,-1.78 1.02,-2.46l46.51 -46.52c0.66,-0.66 1.54,-1.02 2.47,-1.02 0.89,0 1.79,0.34 2.47,1.02l46.51 46.51c0.68,0.68 1.02,1.58 1.02,2.47 0,0.89 -0.34,1.79 -1.02,2.47l-46.51 46.51c-0.68,0.68 -1.58,1.02 -2.47,1.02 -0.93,0 -1.81,-0.36 -2.47,-1.02zm-43.66 -48.98l46.13 46.13 46.13 -46.13 -46.13 -46.13 -46.13 46.13z"/>
   <path class="fil88" d="M60.14 59.65c0,-2.22 -0.95,-3.03 -2.92,-3.75l-19.42 -7.1c-6.45,-2.36 -8.86,-5.42 -8.86,-12.52l0 -7.36c0,-6.83 4.35,-11.42 11.04,-11.42l19.35 0c6.9,0 11.44,4.16 11.44,11.42l0 6.94c0,1.39 -0.7,2.09 -2.09,2.09l-7.48 0c-1.39,0 -2.09,-0.7 -2.09,-2.09l0 -2.92c0,-2.57 -1.61,-4.17 -4.17,-4.17l-9.63 0c-2.57,0 -4.18,1.6 -4.18,4.17l0 2.93c0,2.22 0.96,3.05 2.93,3.76l18.36 6.67c6.45,2.34 9.18,5.41 9.18,12.52l0 8.08c0,6.75 -4.1,10.7 -11.44,10.7l-21.02 0c-6.54,0 -11.04,-3.3 -11.04,-10.7l0 -7.66c0,-1.39 0.7,-2.09 2.09,-2.09l8.02 0c1.4,0 2.09,0.7 2.09,2.09l0 2.99c0,2.57 1.6,4.17 4.17,4.17l11.5 0c2.56,0 4.17,-1.6 4.17,-4.17l0 -2.58z"/>
   <path class="fil89" d="M60.14 59.65c0,-2.22 -0.95,-3.03 -2.92,-3.75l-19.42 -7.1c-6.45,-2.36 -8.86,-5.42 -8.86,-12.52l0 -7.36c0,-6.83 4.35,-10.23 11.04,-10.23l19.35 0c6.9,0 10.91,2.97 10.91,10.23l0 6.94c0,1.39 -0.69,2.09 -2.08,2.09l-6.96 0c-1.39,0 -2.09,-0.7 -2.09,-2.09l0 -2.92c0,-2.57 -1.61,-4.17 -4.17,-4.17l-9.63 0c-2.57,0 -4.35,1.67 -4.35,4.24l0 3.56c0,2.22 1.13,4.23 3.1,4.95l18.36 6.66c6.45,2.35 8.66,5.42 8.66,12.53l0 6.19c0,6.75 -3.58,10.7 -10.92,10.7l-21.02 0c-6.54,0 -11.04,-2.61 -11.04,-10.01l0 -6.26c0,-1.39 0.7,-2.09 2.09,-2.09l7.54 0c1.39,0 2.08,0.7 2.08,2.09l0 2.99c0,2.58 2.09,4.18 4.66,4.18l11.5 0c2.56,0 4.17,-1.61 4.17,-4.18l0 -4.67z"/>
  </g>
 </g>
</svg>
